# xmcd
#
# Track frame offsets:
#	150
#	17144
#	34541
#	47767
#	63223
#	81578
#	107672
#	123016
#	138240
#	152883
#	172022
#	186935
#	204800
#
# Disc length: 2877 seconds
#
# Revision: 1
# Processed by: cddbd v1.5.2PL0 Copyright (c) Steve Scherf et al.
# Submitted via: EZCDAudioConverter 3.1.0.1
#
DISCID=a70b3b0d
DTITLE=Roy Rogers - Slide Of Hand
DYEAR=1993
DGENRE=Blues
TTITLE0=Don't Give It Up 
TTITLE1=Bad Situation
TTITLE2=Don't Say A Word
TTITLE3=Stones In My Passway 
TTITLE4=Cure For An Achin' Heart
TTITLE5=Mellow Apples
TTITLE6=Slide Of Hand
TTITLE7=Make Your Paradise
TTITLE8=Rockin' At The Hey Hey
TTITLE9=Down Home Girl
TTITLE10=Work Hard For The Money
TTITLE11=Change Of The Season
TTITLE12=Bull Hog Grind
EXTD=
EXTT0=
EXTT1=
EXTT2=
EXTT3=
EXTT4=
EXTT5=
EXTT6=
EXTT7=
EXTT8=
EXTT9=
EXTT10=
EXTT11=
EXTT12=
PLAYORDER=
